<svg width="420" height="432" viewBox="0 0 420 432" fill="none" xmlns="http://www.w3.org/2000/svg">
<path d="M299.258 177.223C298.012 177.403 296.741 177.307 295.535 176.943C294.329 176.578 293.218 175.953 292.279 175.112C291.34 174.271 290.597 173.235 290.102 172.075C289.607 170.916 289.371 169.662 289.412 168.402L260.828 157.405L273.77 148.137L298.93 160C301.041 160.21 303.002 161.188 304.441 162.748C305.88 164.308 306.697 166.343 306.737 168.466C306.777 170.589 306.038 172.654 304.66 174.268C303.281 175.882 301.359 176.933 299.257 177.223L299.258 177.223Z" fill="#FFB7B7"/>
<path d="M282.924 169.334L287.387 153.574L287.168 153.424L245.362 124.995L209.224 88.6941L188.173 97.114L189.555 103.784L189.645 103.866L237.693 146.949L237.738 146.971L282.924 169.334Z" fill="#FF6D5F"/>
<path d="M240.097 205.333L175.398 196.253L181.093 156.51H228.725L240.097 205.333Z" fill="#FFB6B6"/>
<path d="M130.163 399.945L143.435 403.032L161.647 353.254L142.059 348.698L130.163 399.945Z" fill="#FFB6B6"/>
<path d="M117.814 421.336L127.332 423.55L131.119 414.949L133.382 424.957L158.625 430.83C159.835 431.111 161.104 430.998 162.245 430.507C163.386 430.016 164.341 429.173 164.969 428.1C165.598 427.027 165.867 425.782 165.739 424.545C165.61 423.308 165.089 422.145 164.253 421.225L147.33 402.598L149.441 393.503L127.944 389.837L117.814 421.336Z" fill="#2F2E41"/>
<path d="M212.055 407.349H225.68L232.164 354.735H212.055V407.349Z" fill="#FFB6B6"/>
<path d="M204.863 430.983H214.634L216.378 421.747L220.845 430.983H246.761C248.003 430.983 249.213 430.585 250.214 429.848C251.214 429.111 251.954 428.073 252.323 426.886C252.693 425.699 252.674 424.424 252.269 423.249C251.864 422.073 251.094 421.058 250.071 420.351L229.376 406.042V396.706L207.608 398.006L204.863 430.983Z" fill="#2F2E41"/>
<path d="M174.58 189.51L237.853 184.471C256.524 228.134 244.652 297.838 230.304 376.304L209.952 378.938L208.374 252.852L157.356 370.15L136.145 369.064L174.58 189.51Z" fill="#2F2E41"/>
<path d="M211.411 74.5321V53.1024C211.412 49.3302 210.672 45.5947 209.231 42.1091C207.791 38.6236 205.678 35.4563 203.014 32.7883C200.351 30.1203 197.188 28.0039 193.707 26.5599C190.226 25.1159 186.495 24.3727 182.727 24.3727C178.959 24.3727 175.228 25.1159 171.746 26.5599C168.265 28.0039 165.103 30.1203 162.439 32.7883C159.775 35.4563 157.663 38.6236 156.222 42.1091C154.781 45.5947 154.041 49.3302 154.043 53.1024C148.987 63.6488 152.15 68.6629 154.043 74.5321C154.045 75.5541 154.451 76.5338 155.173 77.2565C155.895 77.9792 156.873 78.3859 157.894 78.3876H207.557C208.579 78.3864 209.558 77.9799 210.28 77.2571C211.002 76.5344 211.409 75.5544 211.411 74.5321Z" fill="#2F2E41"/>
<path d="M189.805 78.0645C201.42 78.0645 210.836 68.6387 210.836 57.0113C210.836 45.3839 201.42 35.958 189.805 35.958C178.191 35.958 168.775 45.3839 168.775 57.0113C168.775 68.6387 178.191 78.0645 189.805 78.0645Z" fill="#FFB7B7"/>
<path d="M218.196 54.8163C218.19 48.794 215.797 43.0203 211.543 38.7619C207.289 34.5035 201.522 32.1082 195.506 32.1014H191.225C185.209 32.1082 179.442 34.5036 175.188 38.7619C170.934 43.0203 168.542 48.794 168.535 54.8163V55.245C171.741 57.4395 174.785 57.7604 177.583 55.245L180.668 46.5947L181.286 55.245H185.962L187.521 50.8808L187.833 55.245C194.15 60.6304 206.094 58.0496 218.196 55.245L218.196 54.8163Z" fill="#2F2E41"/>
<path d="M177.542 168.126L231.087 166.086L234.08 131.019C236.388 124.6 236.426 119.085 234.191 114.638C232.269 110.983 229.04 108.189 225.149 106.814L213.432 92.6478C211.925 90.8271 210.033 89.3642 207.892 88.365C205.751 87.3657 203.415 86.8551 201.053 86.87L170.609 87.0784C169.875 86.6368 165.424 84.3721 156.646 88.1799C147.125 92.3109 149.336 106.663 149.359 106.807L149.381 106.942L149.486 107.034L169.735 124.108L177.542 168.126Z" fill="#FF6D5F"/>
<path d="M319.593 219.025C319.553 239.454 311.881 259.129 298.085 274.182C284.289 289.235 265.367 298.578 245.039 300.372C224.712 302.167 204.449 296.284 188.234 283.881C172.019 271.478 161.025 253.451 157.414 233.344C153.803 213.237 157.836 192.506 168.72 175.225C179.603 157.944 196.55 145.364 216.229 139.958C235.908 134.551 256.896 136.71 275.065 146.01C293.235 155.309 307.273 171.077 314.418 190.212C314.597 190.693 314.77 191.173 314.94 191.658V191.663C315.694 193.795 316.358 195.968 316.933 198.18C318.705 204.986 319.599 211.992 319.593 219.025Z" fill="#3F3D56"/>
<path d="M228.305 163.448C224.607 161.446 220.502 160.316 216.301 160.144C212.101 159.972 207.917 160.762 204.068 162.455C200.679 163.931 197.111 166.58 195.98 171.363C200.552 168.661 206.471 172.929 207.648 179.776L207.373 179.852C206.752 184.595 208.139 189.758 210.825 192.698C211.024 191.372 211.517 190.106 212.266 188.993C213.015 187.881 214.003 186.949 215.157 186.266C217.13 184.968 219.313 184.025 220.819 181.792C222.605 179.146 223.058 175.279 223.767 171.751C224.477 168.223 225.822 164.431 228.305 163.448Z" fill="#459BFF"/>
<path d="M202.712 203.804C201.445 205.708 199.754 206.902 198.236 208.39C196.484 209.985 195.335 212.136 194.981 214.481C194.789 216.138 195.086 217.822 195.045 219.497C195.004 221.172 194.446 223.057 193.308 223.474C191.512 224.123 190.14 220.783 188.293 220.549C186.826 220.366 185.505 222.677 185.93 224.682C186.355 226.686 188.353 227.574 189.5 226.265C190.538 228.009 189.806 231.171 188.248 231.707C188.083 232.805 187.919 233.899 187.759 234.997C183.818 232.237 179.836 229.432 176.485 225.391C172.759 220.935 170.447 215.465 169.848 209.685C169.413 205.04 170.058 199.727 167.928 196.152C166.223 193.292 163.297 192.661 160.664 192.839C160.184 192.871 159.699 192.926 159.219 192.985C160.772 188.316 162.744 183.798 165.112 179.485C165.648 179.255 166.145 178.945 166.588 178.565C169.039 176.483 170.127 172.268 172.115 169.353C172.243 169.165 172.376 168.982 172.513 168.804C174.547 166.145 177.272 164.776 179.905 163.504C185.733 160.671 191.731 157.802 197.884 158.195L196.133 158.365C194.09 164.094 192.045 169.824 189.998 175.554C189.688 176.432 189.374 177.313 189.057 178.194C187.896 181.453 186.698 184.922 186.876 188.569C186.981 190.729 187.731 193.036 189.157 193.777C190.488 194.464 191.941 193.622 193.226 192.789C193.77 192.441 194.309 192.093 194.853 191.741C196.805 190.482 198.968 189.192 201.029 190.034C202.917 190.802 204.311 193.37 204.577 196.139C204.82 198.83 204.164 201.526 202.712 203.804Z" fill="#459BFF"/>
<path d="M214.321 242.922C208.62 239.408 202.919 235.894 197.218 232.38L197.315 232.13C193.77 233.482 192.299 239.79 192.884 244.948C193.47 250.106 195.456 254.717 196.46 259.744C197.813 266.622 197.302 273.737 194.981 280.351C202.477 271.93 209.112 262.778 214.784 253.033C215.577 251.804 216.181 250.464 216.576 249.056C216.994 247.556 216.845 245.954 216.157 244.557C215.69 243.868 215.059 243.306 214.321 242.922Z" fill="#459BFF"/>
<path d="M191.821 178.992C191.152 180.431 191.049 182.069 191.532 183.581C192.095 184.799 193.115 185.745 194.371 186.213L197.521 187.777C198.569 188.297 199.699 188.822 200.767 188.394C202.056 187.878 202.949 185.856 202.718 183.978C202.472 181.98 201.214 180.606 200.051 179.436C198.423 177.798 196.795 176.161 195.167 174.523L194.249 175.648C193.257 176.617 192.436 177.748 191.821 178.992Z" fill="#459BFF"/>
<path d="M302.706 200.349C304.124 200.683 305.541 201.017 306.958 201.351C306.711 206.143 304.338 210.577 301.157 212.184C299.831 212.852 298.355 213.099 297.257 214.348C296.265 215.483 295.763 217.25 295.301 218.938C294.492 221.886 293.683 224.833 292.873 227.78C292.005 230.956 290.889 234.484 288.631 235.629C286.693 236.612 284.476 235.409 282.985 233.391C281.495 231.373 280.586 228.659 279.703 226.014C279.758 228.897 278.419 231.725 276.521 232.727C274.62 233.729 272.307 232.823 271.036 230.585C270.122 228.979 269.742 226.86 268.846 225.231C267.95 223.602 266.071 222.668 265.093 224.197C264.448 225.213 264.531 226.769 264.211 228.059C264.05 228.916 263.626 229.701 262.998 230.306C262.371 230.91 261.57 231.304 260.709 231.432C259.917 231.414 259.137 231.234 258.416 230.905C257.695 230.575 257.049 230.102 256.517 229.514C253.718 226.648 251.895 222.968 251.31 219.002C250.914 217.101 250.964 215.133 251.457 213.254C252.019 211.474 253.376 210.101 254.725 210.44C255.612 208.564 253.861 206.074 252.284 206.294C250.702 206.513 249.463 208.211 248.165 209.516C246.871 210.82 245.061 211.767 243.758 210.472C243.787 210.946 243.627 211.412 243.313 211.767C242.999 212.123 242.557 212.339 242.084 212.368C242.037 212.371 241.99 212.372 241.943 212.371C241.077 212.122 240.272 211.695 239.58 211.117C236.595 209.255 232.805 210.49 230.684 214.014C232.01 208.367 233.953 201.887 238.026 200.559C239.69 200.015 241.505 200.463 243.077 199.521C245.861 197.85 246.423 191.539 244.019 188.935C244.325 191.397 244.266 194.271 242.967 195.956C241.669 197.64 238.945 196.541 239.109 194.052C239.072 194.402 238.926 194.731 238.69 194.993C238.455 195.255 238.143 195.435 237.799 195.508C237.455 195.581 237.096 195.543 236.775 195.4C236.454 195.257 236.186 195.016 236.01 194.711C235.146 193.393 235.219 191.237 235.832 189.663C236.463 188.237 237.369 186.95 238.497 185.874C240.668 183.544 242.872 181.188 245.386 179.723C247.905 178.259 250.812 177.764 253.335 179.22C254.666 179.988 255.836 181.27 257.194 181.947C257.513 182.145 257.868 182.279 258.238 182.34C258.609 182.4 258.988 182.388 259.353 182.302C259.719 182.216 260.064 182.059 260.369 181.84C260.674 181.621 260.933 181.344 261.131 181.024C261.146 181 261.161 180.975 261.175 180.949C262.186 179.174 261.71 176.538 262.085 174.318C262.757 170.396 266.675 168.561 268.846 171.151C267.223 170.735 265.546 172.657 265.345 174.986C265.139 177.316 266.314 179.668 267.886 180.373C270.529 181.544 273.116 178.597 275.114 175.87C277.198 173.014 279.286 170.16 281.376 167.307C281.71 166.822 282.085 166.365 282.496 165.943C283.151 165.305 284.024 164.939 284.938 164.92C285.852 164.901 286.74 165.231 287.42 165.843C289.532 167.568 290.524 171.106 292.256 173.54C294.771 177.078 298.533 177.938 302.035 178.625C304.645 179.133 307.257 179.644 309.87 180.158C311.612 183.402 313.132 186.761 314.419 190.212C309.626 192.4 305.561 195.918 302.706 200.349Z" fill="#459BFF"/>
<path d="M316.933 198.18C316.397 199.76 316.104 201.413 316.064 203.081C313.824 200.344 313.468 195.214 314.94 191.663C315.694 193.795 316.358 195.968 316.933 198.18Z" fill="#459BFF"/>
<path d="M311.145 255.412C309.187 259.394 306.909 263.209 304.334 266.821C302.688 266.117 300.919 267.375 299.379 268.556C297.769 269.792 295.836 270.995 294.185 269.869C292.499 268.716 291.955 265.49 292.489 262.931C293.104 260.571 294.179 258.357 295.653 256.415C297.024 254.364 298.492 252.236 300.398 251.44C302.309 250.644 304.764 251.77 305.321 254.488L306.674 254.442C305.916 253.399 306.313 251.239 307.333 250.859C308.508 250.415 309.527 252.03 310.222 253.458C310.533 254.104 310.848 254.753 311.145 255.412Z" fill="#459BFF"/>
<path d="M259.321 236.082C256.413 236.265 254.109 232.681 252.578 229.154C251.047 225.628 249.65 221.596 247.026 219.801C245.526 218.775 243.817 218.634 242.19 218.137C241.268 217.904 240.414 217.454 239.7 216.825C238.986 216.195 238.432 215.404 238.084 214.518L236.239 213.772C233.658 215.063 231.295 216.75 229.234 218.772C226.879 221.276 225.413 224.486 225.06 227.907C224.708 231.604 226.009 235.726 228.441 237.115C230.362 238.213 232.599 237.521 234.546 238.525C236.978 239.781 238.421 243.427 238.968 247.027C239.514 250.627 239.376 254.368 239.767 258.009C240.158 261.65 241.235 265.438 243.465 267.304C246.256 269.639 250.351 267.699 251.603 263.449C252.217 261.364 252.196 259.011 252.655 256.847C253.464 253.036 255.647 250.208 257.379 247.082C259.11 243.956 260.473 239.71 259.321 236.082Z" fill="#459BFF"/>
<path d="M230.581 198.632C230.853 198.882 231.106 199.151 231.339 199.437C231.58 199.854 231.703 200.328 231.695 200.809C231.687 201.291 231.547 201.76 231.292 202.168C231.643 202.148 231.985 202.056 232.298 201.897C232.611 201.737 232.887 201.515 233.11 201.244C233.64 200.638 234.107 199.98 234.503 199.278C234.689 199.038 234.822 198.761 234.893 198.466C234.964 198.17 234.971 197.863 234.914 197.564C234.776 197.172 234.452 197.004 234.224 196.709C233.908 196.132 233.693 195.505 233.586 194.856C233.46 194.247 233.167 193.686 232.739 193.235C232.312 192.784 231.767 192.461 231.167 192.303L231.312 192.331C231.064 192.478 230.868 192.699 230.752 192.964C230.636 193.228 230.606 193.522 230.665 193.805C230.753 194.376 231.12 194.85 231.083 195.433C231.031 196.27 230.195 196.663 230.143 197.501C230.135 197.921 230.292 198.328 230.581 198.632Z" fill="#459BFF"/>
<path d="M225.598 184.4L225.611 184.397C225.701 184.316 225.783 184.227 225.859 184.133L225.598 184.4Z" fill="#459BFF"/>
<path d="M226.47 188.331C226.82 188.024 227.078 187.627 227.217 187.183C227.356 186.739 227.371 186.266 227.26 185.814C227.049 184.862 226.301 184.221 225.611 184.397C225.411 184.6 225.162 184.749 224.889 184.83C224.616 184.91 224.326 184.92 224.048 184.858C223.622 184.748 223.154 184.465 222.784 184.786C222.572 185.027 222.424 185.316 222.353 185.628C222.216 186.049 222.079 186.47 221.942 186.89C221.877 187.041 221.86 187.208 221.894 187.369C221.92 187.433 221.962 187.49 222.017 187.533C222.071 187.576 222.136 187.605 222.204 187.616C223.026 187.858 223.847 188.1 224.668 188.343C224.951 188.473 225.259 188.54 225.571 188.538C225.882 188.536 226.189 188.465 226.47 188.331Z" fill="#459BFF"/>
<path d="M288.478 242.607C288.098 241.985 287.718 241.362 287.339 240.74C286.966 240.019 286.456 239.378 285.838 238.853C285.704 238.741 285.549 238.656 285.383 238.604C285.216 238.551 285.041 238.532 284.867 238.548C284.693 238.563 284.523 238.613 284.369 238.693C284.214 238.774 284.076 238.885 283.964 239.019L283.944 239.043L283.991 239.399C285.007 240.49 285.7 241.843 285.991 243.306C286.078 243.942 286.048 244.6 286.124 245.239C286.132 245.535 286.198 245.827 286.318 246.098C286.439 246.368 286.612 246.612 286.827 246.816C287.425 247.216 288.127 246.626 288.552 245.907C288.933 245.316 289.103 244.614 289.037 243.914C288.942 243.445 288.752 243 288.478 242.607Z" fill="#459BFF"/>
<path d="M294.433 243.417C294.506 242.834 294.459 242.243 294.294 241.679C294.267 240.917 294.469 240.164 294.874 239.517C295.276 238.907 295.581 238.238 295.778 237.534C295.86 237.214 295.845 236.875 295.734 236.563C295.609 236.281 295.304 236.152 295.13 236.376L295.503 236.617C294.999 236.527 294.48 236.552 293.987 236.69C293.705 236.798 293.454 236.972 293.254 237.198C293.054 237.424 292.911 237.694 292.838 237.987C292.776 238.443 292.675 238.894 292.536 239.333C292.313 239.791 291.882 239.944 291.611 240.347C291.426 240.703 291.333 241.101 291.339 241.503C291.346 241.905 291.452 242.299 291.649 242.649C291.989 243.223 292.531 243.649 293.167 243.845C293.624 244.009 294.225 244.017 294.433 243.417Z" fill="#459BFF"/>
<path d="M305.04 246.62C305.205 247.05 305.426 247.456 305.697 247.828C306.205 248.34 306.895 248.025 307.511 247.901C308.07 247.813 308.643 247.877 309.168 248.088C309.693 248.299 310.152 248.648 310.495 249.099C310.256 247.906 309.735 246.788 308.975 245.839C308.215 244.89 307.238 244.137 306.127 243.644C304.684 243.144 303.163 242.905 301.635 242.941L301.375 243.008C302.039 244.945 304.127 244.901 305.04 246.62Z" fill="#459BFF"/>
<path d="M260.117 250.582L260.121 250.591L260.197 250.445L260.117 250.582Z" fill="#459BFF"/>
<path d="M258.508 253.7C258.157 254.338 257.855 255.002 257.605 255.686C257.274 256.793 257.055 257.931 256.951 259.082C256.869 259.737 256.844 260.573 257.254 260.892C257.371 260.97 257.513 261.003 257.653 260.984C257.793 260.965 257.921 260.896 258.014 260.789C258.242 260.548 258.428 260.271 258.565 259.969C259.37 258.58 259.996 257.095 260.426 255.548C260.874 253.908 260.767 252.164 260.121 250.591C259.583 251.627 259.046 252.664 258.508 253.7Z" fill="#459BFF"/>
<path d="M242.985 170.631C243.241 170.881 243.564 171.051 243.915 171.12C244.265 171.188 244.629 171.152 244.959 171.017C245.644 170.717 246.273 170.302 246.817 169.789C247.268 169.455 247.65 169.037 247.943 168.559C248.105 168.273 248.208 167.958 248.248 167.632C248.287 167.306 248.262 166.975 248.173 166.659C248.048 166.356 247.847 166.09 247.589 165.886C247.332 165.683 247.028 165.548 246.704 165.495C245.792 165.224 244.881 164.954 243.969 164.683L244.629 164.088C243.95 163.724 243.199 164.4 242.775 165.238C242.503 165.785 242.314 166.369 242.213 166.972C242.068 167.601 242.063 168.255 242.196 168.887C242.33 169.519 242.599 170.114 242.985 170.631Z" fill="#459BFF"/>
<path d="M259.081 165.222C259.338 165.505 259.693 165.68 260.074 165.711C260.455 165.743 260.834 165.627 261.133 165.389C261.391 165.195 261.605 164.949 261.762 164.667C261.918 164.385 262.013 164.073 262.041 163.752C262.106 163.034 261.751 162.236 261.245 162.174L261.361 161.502C260.385 161.325 259.185 161.29 258.662 162.476C258.486 162.93 258.432 163.423 258.505 163.905C258.579 164.387 258.777 164.841 259.081 165.222Z" fill="#459BFF"/>
<path d="M162.991 237.158C162.054 236.315 161.313 235.277 160.82 234.117C160.326 232.956 160.093 231.702 160.137 230.442C160.18 229.182 160.498 227.946 161.07 226.823C161.641 225.699 162.452 224.715 163.445 223.938L153.557 194.925L168.962 198.931L175.983 225.867C177.176 227.624 177.683 229.757 177.409 231.863C177.136 233.969 176.099 235.902 174.497 237.294C172.895 238.686 170.838 239.441 168.716 239.416C166.595 239.391 164.556 238.588 162.987 237.158L162.991 237.158Z" fill="#FFB7B7"/>
<path d="M158.573 219.55L173.52 212.882L168.499 162.27L173.176 111.235L153.219 100.454L148.991 105.791V105.912L146.751 170.447L146.763 170.496L158.573 219.55Z" fill="#FF6D5F"/>
<path d="M338.528 356.336C332.283 353.335 325.547 349.8 318.319 345.729C280.938 324.672 234.971 291.823 188.886 253.234C142.801 214.645 102.103 174.926 74.2892 141.394C60.7405 125.059 50.9811 111.07 45.2827 99.8145C39.2492 87.8988 38.0325 79.4548 41.6654 74.7175C48.7433 65.4886 71.7933 73.8012 89.8836 82.3999L89.2225 83.9189C64.3798 72.1106 47.933 69.2137 42.9117 75.7612C36.5161 84.1004 48.3928 107.624 75.496 140.301C103.248 173.759 143.872 213.404 189.885 251.932C235.897 290.46 281.779 323.249 319.077 344.26C355.502 364.78 380.063 371.766 386.458 363.427C391.768 356.503 384.525 339.064 366.064 314.322L367.323 313.296C380.737 331.274 395.162 354.745 387.704 364.47C384.071 369.208 375.919 369.806 363.475 366.25C356.382 364.223 348.033 360.904 338.528 356.336Z" fill="#459BFF"/>
<path d="M99.363 243.746C82.1465 235.476 66.4128 227.17 52.6324 219.041C34.6203 208.416 20.9313 198.669 11.9456 190.073C2.43229 180.97 -1.42872 173.447 0.469866 167.712C4.16794 156.538 28.5493 156.275 48.3516 158.022L48.217 159.685C21.0236 157.286 4.60273 160.33 1.97878 168.257C-1.36312 178.353 17.3856 196.334 53.4176 217.588C90.3127 239.352 141.319 262.423 197.041 282.549C252.763 302.677 306.516 317.448 348.4 324.14C389.303 330.676 414.68 328.634 418.022 318.538C420.796 310.155 408.368 296.278 383.026 279.461L383.882 278.053C402.296 290.272 423.428 307.309 419.531 319.083C417.633 324.819 410.147 328.244 397.284 329.263C385.134 330.226 368.606 329.057 348.158 325.789C306.182 319.082 252.329 304.286 196.519 284.126C161.508 271.48 128.342 257.667 99.363 243.746Z" fill="#459BFF"/>
<path d="M99.2696 114.372C106.226 114.372 111.865 108.727 111.865 101.763C111.865 94.7994 106.226 89.1543 99.2696 89.1543C92.3135 89.1543 86.6746 94.7994 86.6746 101.763C86.6746 108.727 92.3135 114.372 99.2696 114.372Z" fill="#FF6D5F"/>
<path d="M347.527 268.269C351.786 268.269 355.238 264.814 355.238 260.551C355.238 256.288 351.786 252.832 347.527 252.832C343.269 252.832 339.817 256.288 339.817 260.551C339.817 264.814 343.269 268.269 347.527 268.269Z" fill="#FF6D5F"/>
</svg>
