<svg width="1205" height="775" viewBox="0 0 1205 775" fill="none" xmlns="http://www.w3.org/2000/svg">
<path d="M974.763 413.063C877.52 519.022 750.411 612.222 623.577 677.253C496.732 742.288 370.325 779.077 274.222 772.468C178.119 765.86 130.236 717.086 130.737 643.362C131.238 569.644 180.132 471.065 277.375 365.106C374.618 259.147 501.727 165.947 628.561 100.916C755.406 35.8805 881.813 -0.908247 977.916 5.70048C1074.02 12.3092 1121.9 61.0833 1121.4 134.807C1120.9 208.525 1072.01 307.104 974.763 413.063Z" stroke="#B7B7B7" stroke-width="2.35588"/>
<path d="M964.025 524.63C837.437 592.819 681.987 637.11 533.039 653.618C384.092 670.125 241.738 658.846 141.116 615.969C40.4944 573.092 0.504835 506.671 17.3479 433.872C34.1912 361.072 107.871 281.937 234.458 213.747C361.045 145.558 516.496 101.267 665.444 84.7592C814.391 68.2518 956.745 79.5313 1057.37 122.408C1157.99 165.285 1197.98 231.706 1181.13 304.505C1164.29 377.305 1090.61 456.44 964.025 524.63Z" stroke="#B7B7B7" stroke-width="2.35588"/>
<path d="M310.031 538.358C439.176 601.646 591.491 642.177 733.297 656.572C875.113 670.968 1006.24 659.214 1093.34 618.073C1180.44 576.932 1207.29 514.073 1179.98 445.59C1152.68 377.113 1071.25 303.098 942.107 239.811C812.962 176.523 660.647 135.992 518.841 121.597C377.025 107.201 245.899 118.955 158.796 160.096C71.6933 201.237 44.8524 264.096 72.1578 332.579C99.461 401.056 180.887 475.071 310.031 538.358Z" stroke="#B7B7B7" stroke-width="2.35588"/>
</svg>
