<svg width="36" height="36" viewBox="0 0 36 36" fill="none" xmlns="http://www.w3.org/2000/svg">
<path d="M22.9315 4.70418C20.2234 4.07491 17.4071 4.07491 14.699 4.70418C13.135 3.74491 11.9409 3.30404 11.0724 3.11795C10.7018 3.03429 10.3225 2.99488 9.94257 3.00053C9.76969 3.00522 9.59762 3.02598 9.4286 3.06256L9.40644 3.06699L9.39758 3.07142H9.39093L9.69444 4.13703L9.39093 3.07364C9.23529 3.11762 9.09117 3.19516 8.9687 3.30079C8.84622 3.40642 8.74837 3.5376 8.682 3.68509C8.0284 5.14883 7.90388 6.79423 8.32975 8.33966C7.22678 9.67634 6.62572 11.3565 6.63054 13.0895C6.63054 16.53 7.64519 18.8429 9.37543 20.3294C10.5873 21.3707 12.0583 21.9245 13.5337 22.2413C13.3016 22.9232 13.214 23.6461 13.2768 24.3637V25.6885C12.3751 25.8768 11.7503 25.817 11.305 25.6708C10.749 25.4869 10.3214 25.1169 9.91155 24.5852C9.6973 24.2986 9.49766 24.0014 9.31339 23.6946L9.18712 23.4886C9.02766 23.2235 8.8622 22.962 8.69087 22.7043C8.26994 22.0818 7.64519 21.302 6.63497 21.0361L5.56271 20.7548L5 22.8993L6.07226 23.1807C6.24949 23.225 6.47989 23.3911 6.85872 23.9472C7.00454 24.1667 7.14489 24.3898 7.27965 24.6162L7.4303 24.8599C7.63855 25.1967 7.87781 25.5689 8.15474 25.9322C8.71523 26.6633 9.47955 27.401 10.6138 27.7754C11.3892 28.0324 12.271 28.0944 13.2768 27.9394V32.0755C13.2768 32.3693 13.3935 32.651 13.6012 32.8588C13.8089 33.0665 14.0907 33.1832 14.3845 33.1832H23.2461C23.5399 33.1832 23.8216 33.0665 24.0293 32.8588C24.2371 32.651 24.3538 32.3693 24.3538 32.0755V24.182C24.3538 23.4842 24.3228 22.8439 24.1256 22.248C25.5944 21.9378 27.0544 21.384 28.2595 20.3427C29.9876 18.8451 31 16.5101 31 13.0496V13.0474C30.9944 11.3286 30.3931 9.66489 29.2986 8.33966C29.7239 6.79492 29.5994 5.15039 28.9463 3.68731C28.8804 3.53964 28.783 3.40818 28.661 3.30216C28.5389 3.19615 28.3951 3.11815 28.2396 3.07364L27.9361 4.13703C28.2396 3.07364 28.2374 3.07364 28.2352 3.07364L28.2307 3.07142L28.2219 3.06699L28.2019 3.06256C28.1472 3.04834 28.0918 3.03724 28.0358 3.02933C27.9198 3.0124 27.8029 3.00278 27.6858 3.00053C27.3058 2.99492 26.9266 3.03434 26.5559 3.11795C25.6897 3.30404 24.4956 3.74491 22.9315 4.70418Z" fill="#F0C808"/>
</svg>
