<svg width="38" height="36" viewBox="0 0 38 36" fill="none" xmlns="http://www.w3.org/2000/svg">
<path d="M5.98709 8.97417C8.20213 8.97417 9.97417 7.17444 9.97417 4.98708C9.97417 2.79973 8.17444 1 5.98709 1C3.79973 1 2 2.79973 2 4.98708C2 7.17444 3.79973 8.97417 5.98709 8.97417ZM13.7674 11.9922V34.198H20.6341V23.2335C20.6341 20.3263 21.1878 17.5298 24.7596 17.5298C28.3314 17.5298 28.3314 20.8524 28.3314 23.3997V34.198H35.2257V22.0153C35.2257 16.0346 33.9521 11.4384 26.9747 11.4384C23.6244 11.4384 21.3817 13.2658 20.468 15.0102H20.3849V11.9645H13.7951L13.7674 11.9922ZM2.55376 11.9922H9.4481V34.198H2.55376V11.9922Z" fill="#F0C808"/>
</svg>
