<svg width="158" height="58" viewBox="0 0 158 58" fill="none" xmlns="http://www.w3.org/2000/svg">
<path d="M5.08052 13.7259L152.192 10.8405L155.669 47.7851L5.44182 51.2075L5.08052 13.7259Z" fill="#FF6D5F"/>
<path d="M1.42719 11.1465L148.538 8.26105L152.016 45.2057L1.7885 48.6281L1.42719 11.1465Z" fill="#459BFF"/>
<path d="M16.5305 39.0462L7.77364 39.4391L6.66526 14.7367L15.4944 14.3406C17.9792 14.2291 20.1403 14.6276 21.9779 15.5362C23.8151 16.4368 25.2574 17.7861 26.305 19.5843C27.3606 21.382 27.9459 23.5635 28.061 26.1286C28.1765 28.7018 27.7892 30.9349 26.8992 32.828C26.0173 34.7208 24.6939 36.2023 22.929 37.2726C21.1721 38.3424 19.0393 38.9337 16.5305 39.0462ZM12.7956 34.7299L16.1126 34.5811C17.6565 34.5118 18.9428 34.1801 19.9717 33.5861C21.0082 32.9836 21.7659 32.0915 22.2446 30.9098C22.7311 29.7196 22.933 28.2038 22.8504 26.3624C22.7685 24.5371 22.4322 23.0575 21.8414 21.9238C21.2588 20.7897 20.4285 19.9728 19.3506 19.4733C18.2726 18.9738 16.9617 18.7586 15.4178 18.8279L12.0888 18.9773L12.7956 34.7299ZM40.8481 38.3177C38.9423 38.4032 37.2846 38.0908 35.8749 37.3806C34.4729 36.6619 33.3701 35.6076 32.5665 34.2175C31.7624 32.8193 31.3166 31.1433 31.2289 29.1893C31.1434 27.2835 31.4383 25.5944 32.1135 24.1218C32.7887 22.6492 33.7797 21.4808 35.0865 20.6164C36.4013 19.7517 37.9674 19.2785 39.7847 19.197C41.0069 19.1422 42.1536 19.2881 43.2247 19.6349C44.3034 19.9732 45.2543 20.5147 46.0773 21.2593C46.9084 22.0036 47.5716 22.9569 48.0669 24.1191C48.5618 25.2732 48.8447 26.6383 48.9154 28.2144L48.9787 29.6256L33.3346 30.3276L33.1918 27.1433L43.9991 26.6583C43.9659 25.9186 43.7756 25.2704 43.4284 24.7139C43.0811 24.1574 42.6148 23.7312 42.0295 23.4352C41.4518 23.1307 40.789 22.9953 40.0412 23.0288C39.2612 23.0638 38.5778 23.2758 37.9909 23.6647C37.4118 24.0452 36.9668 24.5446 36.6562 25.1628C36.3451 25.773 36.202 26.4442 36.2268 27.1763L36.3627 30.2038C36.4038 31.1205 36.6082 31.9049 36.9759 32.5572C37.3516 33.2091 37.8612 33.7019 38.5046 34.0356C39.1481 34.3693 39.9 34.5169 40.7604 34.4783C41.3313 34.4527 41.8504 34.3488 42.3176 34.1667C42.7848 33.9846 43.1801 33.7251 43.5033 33.3883C43.8266 33.0515 44.0663 32.646 44.2223 32.1716L48.9887 32.272C48.7987 33.4247 48.3489 34.444 47.6393 35.3299C46.9374 36.2074 46.0101 36.9097 44.8573 37.4368C43.7123 37.9555 42.3759 38.2491 40.8481 38.3177ZM68.6321 18.1444L62.9862 36.9618L57.1966 37.2216L49.8881 18.9854L55.3159 18.7418L59.7584 31.825L59.9514 31.8164L63.1922 18.3884L68.6321 18.1444ZM72.1893 36.5489L71.0809 11.8465L80.9715 11.4027C82.7888 11.3211 84.3167 11.5225 85.5551 12.0068C86.7935 12.4911 87.7397 13.1979 88.3938 14.1274C89.0475 15.0488 89.4021 16.1287 89.4576 17.3671C89.5009 18.332 89.346 19.189 88.9929 19.9381C88.6394 20.6791 88.1354 21.2979 87.4808 21.7946C86.834 22.2829 86.0847 22.6429 85.2329 22.8745L85.2438 23.1157C86.1864 23.1137 87.0788 23.3395 87.921 23.7933C88.7712 24.2466 89.4735 24.904 90.0279 25.7654C90.5818 26.6188 90.886 27.6526 90.9405 28.8668C90.9993 30.1775 90.7262 31.3621 90.121 32.4206C89.5235 33.4707 88.6069 34.3216 87.3712 34.9733C86.1354 35.625 84.5928 35.9923 82.7433 36.0753L72.1893 36.5489ZM77.2204 32.0447L81.4782 31.8536C82.9337 31.7883 83.9827 31.4633 84.6252 30.8785C85.2673 30.2857 85.5675 29.5229 85.5256 28.5901C85.495 27.9066 85.3031 27.3109 84.9499 26.803C84.5968 26.2951 84.108 25.9062 83.4835 25.6361C82.8671 25.3656 82.1407 25.2491 81.3044 25.2866L76.926 25.4831L77.2204 32.0447ZM76.7675 21.949L80.6393 21.7753C81.3549 21.7432 81.9846 21.59 82.5283 21.3159C83.0796 21.0333 83.5056 20.6516 83.8063 20.1708C84.1151 19.6896 84.2549 19.1233 84.2256 18.472C84.1856 17.5794 83.8357 16.874 83.1759 16.3557C82.5241 15.8371 81.6193 15.6037 80.4614 15.6557L76.4931 15.8337L76.7675 21.949ZM98.5787 10.6127L99.687 35.3151L94.5487 35.5456L93.4404 10.8432L98.5787 10.6127ZM112.19 35.1167C110.317 35.2007 108.678 34.8754 107.276 34.1406C105.881 33.3975 104.781 32.3269 103.977 30.9287C103.173 29.5226 102.728 27.8706 102.643 25.9729C102.557 24.0591 102.852 22.37 103.527 20.9054C104.203 19.4329 105.202 18.2681 106.525 17.411C107.856 16.5456 109.458 16.0708 111.332 15.9868C113.205 15.9027 114.84 16.2322 116.235 16.9754C117.637 17.7101 118.741 18.7806 119.545 20.1867C120.349 21.5849 120.794 23.2408 120.88 25.1546C120.965 27.0523 120.67 28.7375 119.995 30.21C119.32 31.6745 118.316 32.8395 116.985 33.705C115.662 34.562 114.064 35.0326 112.19 35.1167ZM112.036 31.1352C112.888 31.097 113.589 30.8238 114.138 30.3157C114.687 29.7996 115.087 29.1129 115.339 28.2556C115.599 27.3979 115.704 26.4303 115.656 25.3528C115.608 24.2753 115.416 23.321 115.08 22.49C114.753 21.6587 114.293 21.0106 113.7 20.5457C113.107 20.0808 112.384 19.8675 111.532 19.9057C110.671 19.9443 109.959 20.2221 109.394 20.7389C108.837 21.2554 108.428 21.9425 108.169 22.8002C107.917 23.6575 107.816 24.6249 107.864 25.7024C107.912 26.7799 108.1 27.7343 108.428 28.5657C108.763 29.3966 109.231 30.0444 109.832 30.5089C110.441 30.965 111.175 31.1738 112.036 31.1352ZM133.309 41.1548C131.645 41.2295 130.207 41.0643 128.997 40.6594C127.794 40.2621 126.826 39.6892 126.091 38.9406C125.357 38.192 124.863 37.3359 124.61 36.3723L129.334 35.5198C129.495 35.8832 129.74 36.2187 130.068 36.5262C130.396 36.8338 130.822 37.0725 131.345 37.2424C131.877 37.42 132.517 37.492 133.264 37.4585C134.382 37.4083 135.291 37.0936 135.99 36.5143C136.697 35.9427 137.023 35.0217 136.966 33.7512L136.814 30.3619L136.596 30.3716C136.394 30.8963 136.079 31.398 135.649 31.8765C135.219 32.3551 134.657 32.755 133.962 33.0762C133.268 33.3974 132.43 33.5801 131.449 33.6241C130.058 33.6865 128.777 33.4217 127.606 32.8296C126.443 32.2291 125.494 31.2767 124.758 29.9721C124.031 28.6592 123.621 26.9775 123.529 24.927C123.435 22.8283 123.698 21.06 124.318 19.6221C124.939 18.1842 125.8 17.0901 126.902 16.3396C128.013 15.5888 129.248 15.1829 130.606 15.1219C131.644 15.0754 132.52 15.2133 133.236 15.5357C133.951 15.8501 134.533 16.2591 134.983 16.7626C135.44 17.2578 135.796 17.7494 136.052 18.2375L136.245 18.2288L136.105 15.1169L141.207 14.888L142.047 33.5957C142.118 35.1718 141.791 36.5079 141.066 37.6039C140.342 38.7 139.308 39.5441 137.965 40.1361C136.63 40.7358 135.079 41.0754 133.309 41.1548ZM132.904 29.6913C133.732 29.6541 134.422 29.4177 134.975 28.9819C135.535 28.5378 135.951 27.9229 136.222 27.1373C136.5 26.3432 136.615 25.4034 136.567 24.3178C136.518 23.2323 136.323 22.2983 135.982 21.516C135.64 20.7256 135.17 20.1222 134.571 19.7059C133.972 19.2896 133.259 19.1001 132.43 19.1372C131.586 19.1751 130.885 19.4362 130.326 19.9206C129.767 20.3968 129.357 21.0437 129.096 21.8612C128.835 22.6786 128.727 23.6141 128.775 24.6675C128.823 25.7369 129.013 26.655 129.345 27.4216C129.686 28.1799 130.151 28.7593 130.741 29.1598C131.339 29.552 132.06 29.7291 132.904 29.6913Z" fill="white"/>
</svg>
