<svg width="158" height="58" viewBox="0 0 158 58" fill="none" xmlns="http://www.w3.org/2000/svg">
<path d="M5.08052 13.7259L152.192 10.8405L155.669 47.7851L5.44182 51.2075L5.08052 13.7259Z" fill="#FF6D5F"/>
<path d="M1.42719 11.1465L148.538 8.26105L152.016 45.2057L1.7885 48.6281L1.42719 11.1465Z" fill="#459BFF"/>
<path d="M16.5305 41.0462L7.77364 41.4391L6.66526 16.7367L15.4944 16.3406C17.9792 16.2291 20.1403 16.6276 21.9779 17.5362C23.8151 18.4368 25.2574 19.7861 26.305 21.5843C27.3606 23.382 27.9459 25.5635 28.061 28.1286C28.1765 30.7018 27.7892 32.9349 26.8992 34.828C26.0173 36.7208 24.6939 38.2023 22.929 39.2726C21.1721 40.3424 19.0393 40.9337 16.5305 41.0462ZM12.7956 36.7299L16.1126 36.5811C17.6565 36.5118 18.9428 36.1801 19.9717 35.5861C21.0082 34.9836 21.7659 34.0915 22.2446 32.9098C22.7311 31.7196 22.933 30.2038 22.8504 28.3624C22.7685 26.5371 22.4322 25.0575 21.8414 23.9238C21.2588 22.7897 20.4285 21.9728 19.3506 21.4733C18.2726 20.9738 16.9617 20.7586 15.4178 20.8279L12.0888 20.9773L12.7956 36.7299ZM40.8481 40.3177C38.9423 40.4032 37.2846 40.0908 35.8749 39.3806C34.4729 38.6619 33.3701 37.6076 32.5665 36.2175C31.7624 34.8193 31.3166 33.1433 31.2289 31.1893C31.1434 29.2835 31.4383 27.5944 32.1135 26.1218C32.7887 24.6492 33.7797 23.4808 35.0865 22.6164C36.4013 21.7517 37.9674 21.2785 39.7847 21.197C41.0069 21.1422 42.1536 21.2881 43.2247 21.6349C44.3034 21.9732 45.2543 22.5147 46.0773 23.2593C46.9084 24.0036 47.5716 24.9569 48.0669 26.1191C48.5618 27.2732 48.8447 28.6383 48.9154 30.2144L48.9787 31.6256L33.3346 32.3276L33.1918 29.1433L43.9991 28.6583C43.9659 27.9186 43.7756 27.2704 43.4284 26.7139C43.0811 26.1574 42.6148 25.7312 42.0295 25.4352C41.4518 25.1307 40.789 24.9953 40.0412 25.0288C39.2612 25.0638 38.5778 25.2758 37.9909 25.6647C37.4118 26.0452 36.9668 26.5446 36.6562 27.1628C36.3451 27.773 36.202 28.4442 36.2268 29.1763L36.3627 32.2038C36.4038 33.1205 36.6082 33.9049 36.9759 34.5572C37.3516 35.2091 37.8612 35.7019 38.5046 36.0356C39.1481 36.3693 39.9 36.5169 40.7604 36.4783C41.3313 36.4527 41.8504 36.3488 42.3176 36.1667C42.7848 35.9846 43.1801 35.7251 43.5033 35.3883C43.8266 35.0515 44.0663 34.646 44.2223 34.1716L48.9887 34.272C48.7987 35.4247 48.3489 36.444 47.6393 37.3299C46.9374 38.2074 46.0101 38.9097 44.8573 39.4368C43.7123 39.9555 42.3759 40.2491 40.8481 40.3177ZM68.6321 20.1444L62.9862 38.9618L57.1966 39.2216L49.8881 20.9854L55.3159 20.7418L59.7584 33.825L59.9514 33.8164L63.1922 20.3884L68.6321 20.1444ZM72.1893 38.5489L71.0809 13.8465L80.9715 13.4027C82.7888 13.3211 84.3167 13.5225 85.5551 14.0068C86.7935 14.4911 87.7397 15.1979 88.3938 16.1274C89.0475 17.0488 89.4021 18.1287 89.4576 19.3671C89.5009 20.332 89.346 21.189 88.9929 21.9381C88.6394 22.6791 88.1354 23.2979 87.4808 23.7946C86.834 24.2829 86.0847 24.6429 85.2329 24.8745L85.2438 25.1157C86.1864 25.1137 87.0788 25.3395 87.921 25.7933C88.7712 26.2466 89.4735 26.904 90.0279 27.7654C90.5818 28.6188 90.886 29.6526 90.9405 30.8668C90.9993 32.1775 90.7262 33.3621 90.121 34.4206C89.5235 35.4707 88.6069 36.3216 87.3712 36.9733C86.1354 37.625 84.5928 37.9923 82.7433 38.0753L72.1893 38.5489ZM77.2204 34.0447L81.4782 33.8536C82.9337 33.7883 83.9827 33.4633 84.6252 32.8785C85.2673 32.2857 85.5675 31.5229 85.5256 30.5901C85.495 29.9066 85.3031 29.3109 84.9499 28.803C84.5968 28.2951 84.108 27.9062 83.4835 27.6361C82.8671 27.3656 82.1407 27.2491 81.3044 27.2866L76.926 27.4831L77.2204 34.0447ZM76.7675 23.949L80.6393 23.7753C81.3549 23.7432 81.9846 23.59 82.5283 23.3159C83.0796 23.0333 83.5056 22.6516 83.8063 22.1708C84.1151 21.6896 84.2549 21.1233 84.2256 20.472C84.1856 19.5794 83.8357 18.874 83.1759 18.3557C82.5241 17.8371 81.6193 17.6037 80.4614 17.6557L76.4931 17.8337L76.7675 23.949ZM98.5787 12.6127L99.687 37.3151L94.5487 37.5456L93.4404 12.8432L98.5787 12.6127ZM112.19 37.1167C110.317 37.2007 108.678 36.8754 107.276 36.1406C105.881 35.3975 104.781 34.3269 103.977 32.9287C103.173 31.5226 102.728 29.8706 102.643 27.9729C102.557 26.0591 102.852 24.37 103.527 22.9054C104.203 21.4329 105.202 20.2681 106.525 19.411C107.856 18.5456 109.458 18.0708 111.332 17.9868C113.205 17.9027 114.84 18.2322 116.235 18.9754C117.637 19.7101 118.741 20.7806 119.545 22.1867C120.349 23.5849 120.794 25.2408 120.88 27.1546C120.965 29.0523 120.67 30.7375 119.995 32.21C119.32 33.6745 118.316 34.8395 116.985 35.705C115.662 36.562 114.064 37.0326 112.19 37.1167ZM112.036 33.1352C112.888 33.097 113.589 32.8238 114.138 32.3157C114.687 31.7996 115.087 31.1129 115.339 30.2556C115.599 29.3979 115.704 28.4303 115.656 27.3528C115.608 26.2753 115.416 25.321 115.08 24.49C114.753 23.6587 114.293 23.0106 113.7 22.5457C113.107 22.0808 112.384 21.8675 111.532 21.9057C110.671 21.9443 109.959 22.2221 109.394 22.7389C108.837 23.2554 108.428 23.9425 108.169 24.8002C107.917 25.6575 107.816 26.6249 107.864 27.7024C107.912 28.7799 108.1 29.7343 108.428 30.5657C108.763 31.3966 109.231 32.0444 109.832 32.5089C110.441 32.965 111.175 33.1738 112.036 33.1352ZM133.309 43.1548C131.645 43.2295 130.207 43.0643 128.997 42.6594C127.794 42.2621 126.826 41.6892 126.091 40.9406C125.357 40.192 124.863 39.3359 124.61 38.3723L129.334 37.5198C129.495 37.8832 129.74 38.2187 130.068 38.5262C130.396 38.8338 130.822 39.0725 131.345 39.2424C131.877 39.42 132.517 39.492 133.264 39.4585C134.382 39.4083 135.291 39.0936 135.99 38.5143C136.697 37.9427 137.023 37.0217 136.966 35.7512L136.814 32.3619L136.596 32.3716C136.394 32.8963 136.079 33.398 135.649 33.8765C135.219 34.3551 134.657 34.755 133.962 35.0762C133.268 35.3974 132.43 35.5801 131.449 35.6241C130.058 35.6865 128.777 35.4217 127.606 34.8296C126.443 34.2291 125.494 33.2767 124.758 31.9721C124.031 30.6592 123.621 28.9775 123.529 26.927C123.435 24.8283 123.698 23.06 124.318 21.6221C124.939 20.1842 125.8 19.0901 126.902 18.3396C128.013 17.5888 129.248 17.1829 130.606 17.1219C131.644 17.0754 132.52 17.2133 133.236 17.5357C133.951 17.8501 134.533 18.2591 134.983 18.7626C135.44 19.2578 135.796 19.7494 136.052 20.2375L136.245 20.2288L136.105 17.1169L141.207 16.888L142.047 35.5957C142.118 37.1718 141.791 38.5079 141.066 39.6039C140.342 40.7 139.308 41.5441 137.965 42.1361C136.63 42.7358 135.079 43.0754 133.309 43.1548ZM132.904 31.6913C133.732 31.6541 134.422 31.4177 134.975 30.9819C135.535 30.5378 135.951 29.9229 136.222 29.1373C136.5 28.3432 136.615 27.4034 136.567 26.3178C136.518 25.2323 136.323 24.2983 135.982 23.516C135.64 22.7256 135.17 22.1222 134.571 21.7059C133.972 21.2896 133.259 21.1001 132.43 21.1372C131.586 21.1751 130.885 21.4362 130.326 21.9206C129.767 22.3968 129.357 23.0437 129.096 23.8612C128.835 24.6786 128.727 25.6141 128.775 26.6675C128.823 27.7369 129.013 28.655 129.345 29.4216C129.686 30.1799 130.151 30.7593 130.741 31.1598C131.339 31.552 132.06 31.7291 132.904 31.6913Z" fill="white"/>
</svg>
