<svg width="158" height="71" viewBox="0 0 158 71" fill="none" xmlns="http://www.w3.org/2000/svg">
<path d="M4 34L149 9.00002L158 45L10 71L4 34Z" fill="#FF6D5F"/>
<path d="M0 32L145 7.00002L154 43L6 69L0 32Z" fill="#459BFF"/>
<path d="M19.1313 57.308L10.5335 59.0147L5.7188 34.7607L14.3877 33.0398C16.8273 32.5556 19.0238 32.6242 20.9772 33.2458C22.9291 33.8595 24.5582 34.9763 25.8645 36.5963C27.1787 38.2146 28.0858 40.2831 28.5858 42.8017C29.0873 45.3281 29.0406 47.5941 28.4458 49.5996C27.8588 51.6036 26.7735 53.2675 25.1899 54.5912C23.6141 55.9134 21.5946 56.819 19.1313 57.308ZM14.7892 53.6031L18.046 52.9566C19.5618 52.6557 20.7836 52.1341 21.7113 51.3919C22.6453 50.6403 23.2601 49.6443 23.5554 48.404C23.8572 47.1541 23.8286 45.6252 23.4697 43.8172C23.1139 42.025 22.5587 40.613 21.804 39.5811C21.0573 38.5476 20.1134 37.8651 18.9726 37.5335C17.8318 37.202 16.5034 37.1867 14.9875 37.4876L11.7189 38.1364L14.7892 53.6031ZM43.0621 52.9267C41.1909 53.2982 39.5051 53.2389 38.0045 52.749C36.5103 52.2496 35.2614 51.3733 34.2576 50.12C33.2523 48.8589 32.5592 47.269 32.1783 45.3505C31.8069 43.4793 31.8441 41.765 32.2899 40.2076C32.7357 38.6502 33.5395 37.3459 34.7013 36.2946C35.8709 35.2418 37.3479 34.5383 39.1322 34.1841C40.3323 33.9458 41.4879 33.9175 42.5989 34.0991C43.7163 34.2711 44.7379 34.6633 45.6636 35.2755C46.5973 35.8862 47.3964 36.7288 48.0611 37.8031C48.7241 38.8696 49.2092 40.1766 49.5164 41.7241L49.7915 43.1097L34.4314 46.1588L33.8107 43.0323L44.4219 40.9259C44.2777 40.1995 43.9921 39.5874 43.565 39.0896C43.1379 38.5917 42.6127 38.2405 41.9895 38.036C41.3725 37.822 40.697 37.7879 39.9627 37.9336C39.1969 38.0856 38.5532 38.3981 38.0315 38.8709C37.5163 39.3343 37.1516 39.8949 36.9375 40.5529C36.7219 41.203 36.6815 41.888 36.8162 42.608L37.4063 45.5806C37.5849 46.4806 37.9051 47.2254 38.3668 47.8149C38.8364 48.4028 39.4143 48.8132 40.1007 49.0463C40.787 49.2793 41.5526 49.312 42.3974 49.1443C42.958 49.033 43.4555 48.8522 43.8899 48.6018C44.3244 48.3514 44.6761 48.0354 44.945 47.6538C45.2139 47.2722 45.3898 46.8352 45.4726 46.3428L50.1997 45.7244C50.1854 46.8925 49.8942 47.9679 49.3261 48.9506C48.7643 49.9238 47.9533 50.7577 46.8931 51.4523C45.8392 52.1375 44.5622 52.629 43.0621 52.9267ZM67.4924 28.8005L64.7438 48.2534L59.0593 49.3819L49.0887 32.4538L54.4179 31.3959L60.7794 43.6612L60.9689 43.6235L62.1513 29.8607L67.4924 28.8005ZM73.7798 46.4597L68.9652 22.2057L78.6762 20.2779C80.4606 19.9237 82.0013 19.8928 83.2985 20.1851C84.5957 20.4774 85.6375 21.0338 86.4241 21.8542C87.209 22.6667 87.7222 23.6809 87.9636 24.8968C88.1516 25.8442 88.1275 26.7148 87.8911 27.5084C87.6532 28.2942 87.2481 28.9819 86.6758 29.5715C86.1099 30.1516 85.4233 30.6202 84.6161 30.9774L84.6632 31.2143C85.5947 31.0704 86.511 31.1593 87.4119 31.4811C88.3207 31.8012 89.1139 32.3454 89.7916 33.1136C90.4678 33.8738 90.9241 34.8501 91.1608 36.0422C91.4163 37.3292 91.3246 38.5414 90.8857 39.6789C90.4531 40.807 89.675 41.7862 88.5514 42.6165C87.4279 43.4468 85.9582 44.0422 84.1423 44.4026L73.7798 46.4597ZM78.0755 41.2494L82.256 40.4195C83.6851 40.1359 84.6732 39.6566 85.2203 38.9817C85.7659 38.299 85.9478 37.4997 85.766 36.5839C85.6328 35.9128 85.3534 35.3528 84.9278 34.9038C84.5022 34.4549 83.9604 34.1439 83.3024 33.9709C82.6523 33.7963 81.9167 33.7906 81.0956 33.9535L76.7966 34.8069L78.0755 41.2494ZM76.1078 31.337L79.9093 30.5824C80.612 30.4429 81.2114 30.1967 81.7076 29.8438C82.2101 29.4814 82.5738 29.0399 82.7988 28.5193C83.0316 27.9972 83.0845 27.4163 82.9575 26.7768C82.7836 25.9004 82.3314 25.2557 81.6011 24.8427C80.8787 24.428 79.9491 24.3336 78.8122 24.5593L74.9159 25.3327L76.1078 31.337ZM95.9637 16.8462L100.778 41.1002L95.7334 42.1017L90.9187 17.8477L95.9637 16.8462ZM113.109 39.0217C111.27 39.3869 109.601 39.3119 108.104 38.7967C106.613 38.272 105.365 37.3791 104.359 36.118C103.352 34.8489 102.664 33.2828 102.294 31.4195C101.921 29.5405 101.958 27.8262 102.406 26.2766C102.851 24.7192 103.664 23.4172 104.843 22.3708C106.029 21.3148 107.541 20.6042 109.381 20.2391C111.22 19.8739 112.885 19.9536 114.377 20.4783C115.874 20.9935 117.126 21.8856 118.133 23.1546C119.138 24.4158 119.827 25.9859 120.2 27.8649C120.57 29.7282 120.532 31.4386 120.086 32.996C119.639 34.5455 118.823 35.8483 117.637 36.9042C116.458 37.9507 114.949 38.6565 113.109 39.0217ZM112.357 35.1089C113.194 34.9428 113.846 34.5672 114.312 33.9822C114.777 33.3893 115.069 32.6502 115.189 31.7648C115.317 30.8778 115.275 29.9053 115.065 28.8474C114.855 27.7894 114.522 26.8749 114.065 26.1039C113.617 25.3313 113.064 24.7599 112.408 24.3896C111.752 24.0192 111.005 23.9171 110.168 24.0833C109.324 24.251 108.661 24.6328 108.18 25.2288C107.707 25.8233 107.407 26.564 107.279 27.451C107.16 28.3364 107.205 29.3081 107.415 30.366C107.625 31.424 107.954 32.3393 108.403 33.1118C108.86 33.8828 109.42 34.4527 110.084 34.8215C110.755 35.1808 111.512 35.2766 112.357 35.1089ZM134.897 41.8115C133.262 42.1359 131.816 42.1891 130.559 41.9711C129.31 41.7593 128.267 41.3387 127.428 40.7092C126.589 40.0797 125.972 39.3077 125.577 38.3931L130.118 36.8392C130.333 37.1742 130.625 37.469 130.996 37.7237C131.366 37.9784 131.823 38.1503 132.366 38.2395C132.918 38.335 133.562 38.3099 134.296 38.1641C135.393 37.9463 136.244 37.4984 136.848 36.8205C137.461 36.1489 137.644 35.1893 137.397 33.9419L136.736 30.6141L136.523 30.6564C136.402 31.2056 136.165 31.749 135.813 32.2868C135.46 32.8246 134.964 33.3046 134.326 33.7268C133.688 34.1489 132.887 34.4556 131.924 34.6468C130.558 34.9179 129.251 34.849 128.005 34.4399C126.765 34.0214 125.683 33.2226 124.76 32.0437C123.843 30.8553 123.184 29.2544 122.785 27.2412C122.376 25.1805 122.369 23.3928 122.766 21.8779C123.163 20.363 123.85 19.1516 124.827 18.2438C125.812 17.3343 126.971 16.7472 128.305 16.4823C129.324 16.2801 130.211 16.2846 130.967 16.4956C131.721 16.6987 132.358 17.0154 132.879 17.4455C133.405 17.8661 133.832 18.2985 134.158 18.7426L134.347 18.7049L133.741 15.6495L138.75 14.6551L142.397 33.0232C142.704 34.5707 142.582 35.9407 142.031 37.1333C141.48 38.326 140.585 39.316 139.346 40.1035C138.117 40.8974 136.634 41.4667 134.897 41.8115ZM132.77 30.5397C133.583 30.3783 134.23 30.0406 134.711 29.5267C135.198 29.0033 135.516 28.3328 135.666 27.5153C135.821 26.6884 135.794 25.742 135.582 24.6761C135.37 23.6103 135.037 22.7163 134.582 21.9943C134.125 21.2643 133.569 20.7386 132.915 20.4172C132.26 20.0958 131.526 20.0159 130.713 20.1773C129.884 20.3419 129.23 20.7056 128.751 21.2684C128.27 21.8234 127.962 22.5247 127.827 23.3722C127.691 24.2197 127.726 25.1606 127.932 26.1948C128.14 27.2449 128.466 28.1238 128.91 28.8317C129.361 29.5301 129.908 30.0328 130.552 30.34C131.202 30.6377 131.941 30.7043 132.77 30.5397Z" fill="white"/>
</svg>
