<svg width="38" height="34" viewBox="0 0 38 34" fill="none" xmlns="http://www.w3.org/2000/svg">
<path d="M34.2665 5H4.07352C3.78884 5.00033 3.51591 5.1136 3.31465 5.31494C3.11339 5.51629 3.00023 5.78925 3 6.07394V8.23442C3 8.33396 3.10794 8.4482 3.19614 8.4944L19.0663 17.5593C19.1069 17.5825 19.153 17.5945 19.1998 17.5941C19.2477 17.5943 19.2947 17.5815 19.3359 17.5572L34.7264 8.50322C34.8129 8.45492 35.0422 8.32724 35.1283 8.26844C35.2325 8.19746 35.34 8.1332 35.34 8.00594V6.07352C35.3397 5.78891 35.2265 5.51605 35.0252 5.3148C34.824 5.11354 34.5511 5.00033 34.2665 5ZM35.206 11.4919C35.1647 11.4684 35.1179 11.4561 35.0703 11.4564C35.0228 11.4567 34.9761 11.4695 34.9351 11.4936L26.2256 16.618C26.1909 16.6383 26.1612 16.666 26.1387 16.6993C26.1162 16.7326 26.1014 16.7705 26.0956 16.8102C26.0897 16.85 26.0929 16.8905 26.1049 16.9289C26.1168 16.9672 26.1373 17.0024 26.1647 17.0317L34.8755 26.4217C34.9004 26.4488 34.9308 26.4704 34.9645 26.4852C34.9983 26.4999 35.0348 26.5075 35.0716 26.5074C35.1428 26.5073 35.211 26.4789 35.2613 26.4286C35.3116 26.3783 35.3399 26.3101 35.34 26.239V11.725C35.3402 11.6778 35.3279 11.6314 35.3044 11.5905C35.2808 11.5495 35.2469 11.5155 35.206 11.4919ZM23.7157 18.3388C23.6743 18.2938 23.6188 18.2643 23.5583 18.2552C23.4979 18.2462 23.4361 18.2582 23.3834 18.2892L19.8924 20.3434C19.6879 20.4616 19.4561 20.5246 19.2199 20.5261C18.9837 20.5277 18.7511 20.4678 18.545 20.3523L15.4727 18.5971C15.4231 18.5688 15.3658 18.5571 15.3091 18.5636C15.2524 18.5701 15.1993 18.5945 15.1573 18.6332L3.49056 29.4549C3.45998 29.4835 3.4365 29.5189 3.42199 29.5581C3.40748 29.5974 3.40234 29.6395 3.40699 29.6811C3.41164 29.7227 3.42595 29.7627 3.44877 29.7978C3.47159 29.8329 3.5023 29.8622 3.53844 29.8833C3.71988 29.99 3.89502 30.0408 4.0731 30.0408H33.9574C34.0097 30.0409 34.0608 30.0257 34.1045 29.9969C34.1482 29.9682 34.1825 29.9272 34.2031 29.8791C34.224 29.8313 34.2305 29.7784 34.2217 29.727C34.2129 29.6756 34.1892 29.6278 34.1535 29.5897L23.7157 18.3388ZM12.5903 17.353C12.6212 17.3245 12.6449 17.289 12.6596 17.2496C12.6743 17.2102 12.6795 17.1678 12.6748 17.126C12.6701 17.0842 12.6556 17.044 12.6325 17.0088C12.6095 16.9737 12.5785 16.9444 12.542 16.9234L3.40026 11.7019C3.35947 11.6788 3.3133 11.6667 3.26639 11.667C3.21947 11.6673 3.17345 11.6799 3.13293 11.7035C3.09241 11.7272 3.0588 11.761 3.03548 11.8017C3.01215 11.8424 2.99992 11.8885 3 11.9355V25.6359C2.99971 25.6882 3.01476 25.7394 3.0433 25.7833C3.07184 25.8272 3.11262 25.8617 3.16058 25.8826C3.20854 25.9035 3.26159 25.9099 3.31315 25.901C3.3647 25.8921 3.41252 25.8682 3.45066 25.8324L12.5903 17.353Z" fill="#F0C808"/>
</svg>
