<svg width="389" height="314" viewBox="0 0 389 314" fill="none" xmlns="http://www.w3.org/2000/svg">
<rect width="389" height="314" rx="25" fill="#459BFF"/>
<path d="M108.75 73.07C113.68 73.07 117.42 73.75 119.97 75.11C122.52 76.47 123.795 78.255 123.795 80.465C127.025 79.955 129.83 79.615 132.21 79.445C134.76 79.275 137.565 79.19 140.625 79.19C152.865 79.19 163.15 82.165 171.48 88.115C179.98 94.065 186.27 101.885 190.35 111.575C194.6 121.265 196.725 131.72 196.725 142.94C196.725 145.83 196.64 147.955 196.47 149.315C194.94 169.715 189.84 187.735 181.17 203.375C172.5 218.845 161.025 230.83 146.745 239.33C132.635 247.83 116.74 252.08 99.06 252.08C94.13 252.08 88.095 251.485 80.955 250.295C78.235 249.785 75.005 248 71.265 244.94C67.695 241.71 64.635 238.055 62.085 233.975C59.535 229.895 58.26 226.24 58.26 223.01C58.26 221.14 58.515 219.355 59.025 217.655L85.8 114.38C76.11 117.27 67.95 121.01 61.32 125.6C59.28 123.56 57.75 121.01 56.73 117.95C55.71 114.89 55.2 111.745 55.2 108.515C55.2 104.775 56.73 101.46 59.79 98.57C67.78 93.47 78.83 89.135 92.94 85.565C96.17 77.235 101.44 73.07 108.75 73.07ZM90.9 223.775C94.98 224.795 99.4 225.305 104.16 225.305C116.06 225.305 126.26 222.075 134.76 215.615C143.26 208.985 149.89 200.655 154.65 190.625C159.58 180.595 162.81 170.225 164.34 159.515C165.02 155.265 165.36 150.505 165.36 145.235C165.36 133.335 162.725 123.985 157.455 117.185C152.185 110.215 144.025 106.73 132.975 106.73C128.215 106.73 123.88 107.07 119.97 107.75C116.91 121.01 110.45 146.935 100.59 185.525C95.32 206.265 92.09 219.015 90.9 223.775ZM202.757 123.05C197.487 117.44 194.852 112.255 194.852 107.495C194.852 103.755 196.297 99.93 199.187 96.02C206.837 91.09 218.227 87.095 233.357 84.035C248.657 80.805 265.062 79.19 282.572 79.19C299.912 79.19 312.662 82.675 320.822 89.645C328.982 96.445 333.062 105.965 333.062 118.205C333.062 128.405 329.747 136.395 323.117 142.175C316.487 147.955 307.137 152.46 295.067 155.69C306.287 157.56 313.682 162.065 317.252 169.205C320.822 176.345 322.607 184.505 322.607 193.685C322.607 206.435 318.952 217.485 311.642 226.835C304.502 236.015 295.067 242.985 283.337 247.745C271.777 252.505 259.452 254.885 246.362 254.885C239.052 254.885 231.232 253.865 222.902 251.825C214.572 249.955 207.347 246.725 201.227 242.135C195.277 237.375 192.302 231.34 192.302 224.03C192.302 221.65 192.557 219.355 193.067 217.145L219.077 112.085C210.747 115.315 205.307 118.97 202.757 123.05ZM276.707 102.395C269.567 102.395 262.002 102.82 254.012 103.67C253.332 107.24 252.312 111.405 250.952 116.165C250.102 120.075 248.997 124.75 247.637 130.19C246.277 135.63 244.832 141.92 243.302 149.06L247.127 148.805C259.877 147.785 271.522 144.98 282.062 140.39C292.772 135.63 298.127 129.51 298.127 122.03C298.127 116.42 296.427 111.745 293.027 108.005C289.797 104.265 284.357 102.395 276.707 102.395ZM239.477 172.775C234.887 188.075 230.042 205.5 224.942 225.05C229.872 228.45 235.907 230.15 243.047 230.15C250.697 230.15 258.007 228.875 264.977 226.325C271.947 223.605 277.557 219.695 281.807 214.595C286.227 209.495 288.437 203.46 288.437 196.49C288.437 189.86 286.737 183.74 283.337 178.13C280.107 172.52 275.092 169.715 268.292 169.715C260.982 169.715 251.377 170.735 239.477 172.775Z" fill="white"/>
</svg>
