<svg width="140" height="103" viewBox="0 0 140 103" fill="none" xmlns="http://www.w3.org/2000/svg">
<path d="M41.0081 26.9894C46.921 26.9894 51.8574 27.6946 55.8174 29.105C59.7774 30.5154 62.9237 32.4412 65.2563 34.8823C67.6432 37.2691 69.3248 40.0357 70.3013 43.182C71.332 46.3283 71.8473 49.6374 71.8473 53.1091C71.8473 56.5809 71.2777 59.9171 70.1385 63.1176C69.0536 66.3182 67.2906 69.1661 64.8495 71.6615C62.4626 74.1026 59.2892 76.0555 55.3292 77.5201C51.4235 78.9305 46.6498 79.6357 41.0081 79.6357H10.9012V26.9894H41.0081ZM21.7234 70.3596H40.764C44.6698 70.3596 47.8974 69.8985 50.447 68.9763C53.0509 67.9998 55.1122 66.6979 56.6311 65.0705C58.15 63.4431 59.235 61.5987 59.8859 59.5374C60.5369 57.476 60.8624 55.3333 60.8624 53.1091C60.8624 50.885 60.5369 48.7694 59.8859 46.7623C59.235 44.7552 58.15 42.965 56.6311 41.3919C55.1122 39.8187 53.0509 38.571 50.447 37.6489C47.8974 36.7267 44.6698 36.2656 40.764 36.2656H21.7234V70.3596ZM82.4178 79.6357V26.9894H112.769C119.821 26.9894 125.164 28.1828 128.799 30.5697C132.487 32.9023 134.332 36.4012 134.332 41.0664C134.332 44.05 133.599 46.4097 132.135 48.1456C130.67 49.8272 128.582 51.0749 125.869 51.8886C123.211 52.7023 120.065 53.2176 116.43 53.4346L116.756 52.865C119.414 52.9193 121.909 53.1091 124.242 53.4346C126.629 53.7601 128.717 54.3568 130.507 55.2248C132.298 56.0927 133.708 57.3133 134.739 58.8864C135.769 60.4053 136.285 62.4124 136.285 64.9078C136.285 68.1626 135.417 70.8749 133.681 73.0448C131.945 75.1604 129.531 76.7607 126.439 77.8456C123.347 78.9305 119.767 79.5272 115.698 79.6357H82.4178ZM93.24 70.685H114.559C117.976 70.685 120.607 70.1426 122.452 69.0576C124.296 67.9185 125.218 66.1283 125.218 63.6872C125.218 61.8971 124.676 60.5952 123.591 59.7815C122.506 58.9678 121.068 58.4796 119.278 58.3168C117.488 58.0998 115.562 57.9913 113.501 57.9913H93.24V70.685ZM93.24 49.2848H112.362C115.779 49.2848 118.41 48.7965 120.255 47.8201C122.099 46.7894 123.021 45.0535 123.021 42.6124C123.021 40.1713 122.099 38.4626 120.255 37.4861C118.41 36.4554 115.969 35.9401 112.931 35.9401H93.24V49.2848Z" fill="#1F1C0D"/>
<path d="M36.3724 22.3537C42.2852 22.3537 47.2217 23.0589 51.1817 24.4693C55.1417 25.8797 58.288 27.8054 60.6206 30.2465C63.0075 32.6334 64.6891 35.4 65.6655 38.5463C66.6962 41.6926 67.2116 45.0016 67.2116 48.4734C67.2116 51.9452 66.642 55.2814 65.5028 58.4819C64.4179 61.6825 62.6549 64.5304 60.2138 67.0257C57.8269 69.4668 54.6535 71.4197 50.6935 72.8844C46.7877 74.2948 42.014 75 36.3724 75H6.26549V22.3537H36.3724ZM17.0877 65.7238H36.1283C40.034 65.7238 43.2617 65.2627 45.8113 64.3405C48.4151 63.3641 50.4765 62.0622 51.9954 60.4348C53.5143 58.8074 54.5992 56.963 55.2502 54.9016C55.9011 52.8403 56.2266 50.6975 56.2266 48.4734C56.2266 46.2493 55.9011 44.1337 55.2502 42.1265C54.5992 40.1194 53.5143 38.3293 51.9954 36.7561C50.4765 35.183 48.4151 33.9353 45.8113 33.0131C43.2617 32.0909 40.034 31.6298 36.1283 31.6298H17.0877V65.7238ZM77.782 75V22.3537H108.133C115.185 22.3537 120.528 23.5471 124.163 25.9339C127.852 28.2665 129.696 31.7654 129.696 36.4306C129.696 39.4142 128.964 41.7739 127.499 43.5098C126.034 45.1915 123.946 46.4392 121.234 47.2529C118.575 48.0666 115.429 48.5819 111.795 48.7989L112.12 48.2293C114.778 48.2835 117.274 48.4734 119.606 48.7989C121.993 49.1244 124.082 49.7211 125.872 50.589C127.662 51.457 129.072 52.6775 130.103 54.2507C131.134 55.7696 131.649 57.7767 131.649 60.272C131.649 63.5268 130.781 66.2392 129.045 68.409C127.309 70.5247 124.895 72.1249 121.803 73.2099C118.711 74.2948 115.131 74.8915 111.062 75H77.782ZM88.6042 66.0493H109.923C113.341 66.0493 115.972 65.5068 117.816 64.4219C119.66 63.2827 120.583 61.4926 120.583 59.0515C120.583 57.2614 120.04 55.9594 118.955 55.1457C117.87 54.332 116.433 53.8438 114.643 53.6811C112.852 53.4641 110.927 53.3556 108.865 53.3556H88.6042V66.0493ZM88.6042 44.649H107.726C111.144 44.649 113.775 44.1608 115.619 43.1844C117.463 42.1537 118.386 40.4178 118.386 37.9767C118.386 35.5356 117.463 33.8268 115.619 32.8504C113.775 31.8197 111.334 31.3043 108.296 31.3043H88.6042V44.649Z" fill="#F0C808"/>
</svg>
